<svg xmlns="http://www.w3.org/2000/svg" width="18.682" height="17.245" viewBox="0 0 18.682 17.245"><defs><style>.a{fill:#fff;}</style></defs><g transform="translate(-3.375 -4.5)"><path class="a" d="M10.322,16.953V9.291a1.916,1.916,0,0,1,1.917-1.917h8.847V6.417a1.91,1.91,0,0,0-1.9-1.917H5.351A1.941,1.941,0,0,0,3.375,6.386V19.859a1.941,1.941,0,0,0,1.976,1.886H19.183a1.907,1.907,0,0,0,1.9-1.917V18.87H12.235a1.916,1.916,0,0,1-1.913-1.917Z" transform="translate(0)"/><path class="a" d="M17.227,12.672v6.287a.72.72,0,0,0,.719.719h8.4a.72.72,0,0,0,.719-.719V12.672a.72.72,0,0,0-.719-.719h-8.4A.72.72,0,0,0,17.227,12.672Zm3.462,4.576a1.438,1.438,0,1,1,1.343-1.343,1.439,1.439,0,0,1-1.343,1.343Z" transform="translate(-5.005 -2.693)"/></g></svg>