<?xml version="1.0" encoding="utf-8"?>
<!-- Generator: Adobe Illustrator 19.2.1, SVG Export Plug-In . SVG Version: 6.00 Build 0)  -->
<svg version="1.1" id="Layer_1" xmlns="http://www.w3.org/2000/svg" xmlns:xlink="http://www.w3.org/1999/xlink" x="0px" y="0px"
	 viewBox="0 0 26.7 26.8" style="enable-background:new 0 0 26.7 26.8;" xml:space="preserve">
<style type="text/css">
	.st0{fill:#FFC11C;}
	.st1{fill:#E5A413;}
	.st2{fill:#FFFFFF;}
</style>
<path class="st0" d="M5.9,12.9c0-2.8,0-5.7,0-8.5C5.7,3.5,6.4,2.7,7.3,2.5c0.1,0,0.3,0,0.4,0c3.8,0,7.5,0,11.3,0
	c0.9-0.1,1.7,0.5,1.8,1.4c0,0.1,0,0.3,0,0.4c0,5.7,0,11.4,0,17.2c0.1,0.9-0.5,1.7-1.4,1.8c-0.1,0-0.3,0-0.4,0c-3.8,0-7.6,0-11.4,0
	c-0.9,0.1-1.7-0.6-1.8-1.5c0-0.1,0-0.2,0-0.3C5.9,18.7,5.9,15.8,5.9,12.9z M13.7,15.1c0.3,0.2,0.5,0.4,0.8,0.6
	c0.8,0.4,1.8,0.1,2.3-0.7c0.1-0.1,0.1-0.3,0.2-0.5c0.1-0.6-0.1-1.2-0.4-1.7l-3.1-4c-0.8,1-1.6,2-2.4,3.1c-0.3,0.4-0.6,0.8-0.9,1.2
	c-0.5,0.7-0.4,1.7,0.3,2.3c0.6,0.6,1.7,0.6,2.3,0c0.1-0.1,0.2-0.2,0.4-0.3c0.1,0.8-0.3,1.5-0.9,1.9h2.6C14,16.7,13.6,15.9,13.7,15.1
	L13.7,15.1z M10.4,7.5L9.1,3.8c0-0.1,0-0.2-0.1-0.2C8.9,3.5,8.7,3.4,8.5,3.4c-0.2,0-0.3,0.1-0.4,0.3C7.8,4.4,7.6,5,7.3,5.7
	C7.1,6.3,6.9,6.9,6.7,7.5c0.5,0.2,0.7,0,0.8-0.4C7.6,6.8,7.8,6.4,8,6.3c0.8-0.3,1.3,0,1.6,0.8C9.7,7.5,9.9,7.7,10.4,7.5L10.4,7.5z
	 M16.3,18.4c0.5,1.3,0.9,2.6,1.4,3.9c0.1,0.1,0.2,0.2,0.4,0.2c0.2,0,0.4-0.1,0.5-0.2c0.5-1.3,0.9-2.6,1.4-3.9
	c-0.5-0.2-0.7-0.1-0.8,0.4c-0.1,0.3-0.2,0.7-0.4,0.8c-0.5,0.3-1.2,0.1-1.5-0.5c0-0.1-0.1-0.2-0.1-0.3C17,18.5,16.8,18.2,16.3,18.4
	L16.3,18.4z"/>
<path class="st1" d="M4.9,14.9L2.5,9.7c-0.5,0.6-1,1.1-1.5,1.6c-0.1,0.1,0.1,0.5,0.2,0.7c1,1,2.1,2.1,3.2,3.1
	c0.5,0.4,0.7,1.1,0.5,1.7c-0.4-0.4-0.8-0.8-1.2-1.2c-1.1-1-2.2-2.1-3.2-3.1c-0.5-0.4-0.7-1.1-0.3-1.7c0.1-0.1,0.1-0.2,0.2-0.2
	c0.5-0.5,0.9-1,1.4-1.5C1.9,9,2,8.7,1.9,8.5C1.1,6.9,1.3,6.3,3.1,5.7C3.7,5.4,4.3,5.1,5,4.8L4.9,14.9L4.9,14.9z"/>
<path class="st1" d="M21.7,22V11.8l0.1,0l2.4,5.2c0.5-0.6,1-1.1,1.5-1.6c0.3-0.3,0-0.5-0.2-0.7c-1.1-1-2.1-2.1-3.2-3
	c-0.5-0.4-0.8-1.1-0.6-1.7c0.2,0.1,0.3,0.2,0.4,0.3c1.3,1.3,2.7,2.5,4,3.8c0.8,0.8,0.8,1.3,0,2.1c-0.4,0.4-0.8,0.9-1.3,1.3
	c-0.2,0.2-0.3,0.4-0.1,0.7c0.8,1.5,0.7,2.2-1.1,2.8C23,21.3,22.4,21.6,21.7,22z"/>
<path class="st1" d="M9.2,24.2h7.5l-1.8,0.9c0.1,0.2,0.3,0.3,0.4,0.4c0.3,0.4,0.7,0.4,1,0c0.2-0.3,0.5-0.4,0.6-0.7
	c0.4-0.5,1.1-0.8,1.7-0.5c-0.7,0.8-1.4,1.5-2.2,2.2c-0.4,0.4-1,0.3-1.4-0.1c0,0-0.1-0.1-0.1-0.1c-0.4-0.7-1.3-0.9-1.9-0.4
	c-0.1,0-0.1,0.1-0.2,0.2c-0.4,0.2-0.8,0.4-1.2,0.5c-0.5,0.3-1.2,0.1-1.5-0.4C9.8,25.6,9.5,24.9,9.2,24.2z"/>
<path class="st1" d="M17.1,1.7c-1.7,0-3.4,0-5,0c-0.3,0-0.5-0.3-0.8-0.5c-0.3-0.3-0.6-0.3-0.8,0c-0.4,0.6-1,0.6-1.6,0.5
	c0.4-0.5,0.8-0.9,1.2-1.3c0.4-0.4,1-0.5,1.5-0.1c0.1,0,0.1,0.1,0.1,0.2c0.7,0.9,1.4,0.8,2.2,0.3c0.3-0.2,0.7-0.3,1-0.5
	c0.6-0.3,1.3-0.1,1.6,0.4c0,0.1,0.1,0.1,0.1,0.2C16.9,1.1,17,1.3,17.1,1.7z"/>
<path class="st2" d="M13.7,15.1c-0.1,0.8,0.3,1.6,1,1.9h-2.6c0.7-0.4,1-1.2,0.9-1.9c-0.1,0.1-0.3,0.2-0.4,0.3
	c-0.6,0.6-1.7,0.6-2.3,0c-0.6-0.6-0.8-1.6-0.3-2.3c0.3-0.4,0.6-0.8,0.9-1.2c0.8-1.1,1.6-2.1,2.4-3.1l3.1,4c0.4,0.5,0.5,1.1,0.4,1.7
	c-0.2,0.9-1,1.5-2,1.3c-0.2,0-0.3-0.1-0.5-0.2C14.2,15.5,13.9,15.3,13.7,15.1z"/>
<path class="st2" d="M10.4,7.5c-0.5,0.2-0.7,0-0.8-0.4C9.3,6.3,8.8,6,8,6.3C7.8,6.4,7.6,6.8,7.5,7.1C7.4,7.5,7.2,7.7,6.7,7.5
	c0.2-0.6,0.4-1.2,0.6-1.7c0.2-0.7,0.5-1.4,0.8-2c0.1-0.2,0.2-0.3,0.4-0.3c0.2,0,0.3,0.1,0.5,0.2c0.1,0,0.1,0.1,0.1,0.2L10.4,7.5z
	 M8,5.7h1.1L8.6,4.1L8,5.7z"/>
<path class="st2" d="M16.3,18.4c0.5-0.2,0.7,0,0.8,0.4c0.1,0.6,0.7,1,1.3,0.9c0.1,0,0.2-0.1,0.3-0.1c0.2-0.1,0.3-0.5,0.4-0.8
	c0.1-0.4,0.3-0.5,0.8-0.4c-0.5,1.3-0.9,2.6-1.4,3.9c0,0.1-0.3,0.2-0.5,0.2c-0.2,0-0.3-0.1-0.4-0.2C17.2,21,16.8,19.8,16.3,18.4z
	 M17.6,20.2l0.5,1.6l0.5-1.6H17.6z"/>
<path class="st0" d="M8,5.7l0.6-1.6l0.5,1.6H8z"/>
<path class="st0" d="M17.6,20.2h1.1l-0.5,1.6L17.6,20.2z"/>
</svg>
