<?xml version="1.0" encoding="utf-8"?>
<!-- Generator: Adobe Illustrator 19.2.1, SVG Export Plug-In . SVG Version: 6.00 Build 0)  -->
<svg version="1.1" id="Layer_1" xmlns="http://www.w3.org/2000/svg" xmlns:xlink="http://www.w3.org/1999/xlink" x="0px" y="0px"
	 viewBox="0 0 16 16" style="enable-background:new 0 0 16 16;" xml:space="preserve">
<style type="text/css">
	.st0{fill:none;}
	.st1{fill:#FFC11C;}
</style>
<path class="st0" d="M0,0h16v16H0V0z"/>
<path class="st1" d="M8,1.3c-3.7,0-6.7,3-6.7,6.7c0,3.7,3,6.7,6.7,6.7c3.7,0,6.7-3,6.7-6.7C14.7,4.3,11.7,1.3,8,1.3
	C8,1.3,8,1.3,8,1.3z M8,13.3c-2.9,0-5.3-2.4-5.3-5.3S5.1,2.7,8,2.7s5.3,2.4,5.3,5.3l0,0C13.3,10.9,10.9,13.3,8,13.3
	C8,13.3,8,13.3,8,13.3z M8.3,4.7h-1v4l3.5,2.1l0.5-0.8l-3-1.8V4.7z"/>
</svg>
