<?xml version="1.0" encoding="utf-8"?>
<!-- Generator: Adobe Illustrator 19.2.1, SVG Export Plug-In . SVG Version: 6.00 Build 0)  -->
<svg version="1.1" id="Layer_1" xmlns="http://www.w3.org/2000/svg" xmlns:xlink="http://www.w3.org/1999/xlink" x="0px" y="0px"
	 viewBox="0 0 22 22" style="enable-background:new 0 0 22 22;" xml:space="preserve">
<style type="text/css">
	.st0{fill:none;}
	.st1{fill:#FFC11C;}
</style>
<path class="st0" d="M0,0h22v22H0V0z"/>
<g transform="translate(3 3)">
	<path class="st1" d="M10.7,0H1.8C0.8,0,0,0.8,0,1.8l0,12.4c0,1,0.8,1.8,1.8,1.8h12.5c1,0,1.8-0.8,1.8-1.8V5.3L10.7,0z M1.8,14.2
		V1.8h8v4.4h4.4v8H1.8z M5.3,4.4c0,0.5-0.4,0.9-0.9,0.9S3.6,4.9,3.6,4.4S4,3.6,4.4,3.6l0,0C4.9,3.6,5.3,4,5.3,4.4z M5.3,8
		c0,0.5-0.4,0.9-0.9,0.9S3.6,8.5,3.6,8S4,7.1,4.4,7.1l0,0C4.9,7.1,5.3,7.5,5.3,8z M5.3,11.6c0,0.5-0.4,0.9-0.9,0.9S3.6,12,3.6,11.6
		s0.4-0.9,0.9-0.9l0,0C4.9,10.7,5.3,11.1,5.3,11.6z"/>
</g>
</svg>
