<?xml version="1.0" encoding="utf-8"?>
<!-- Generator: Adobe Illustrator 19.2.1, SVG Export Plug-In . SVG Version: 6.00 Build 0)  -->
<svg version="1.1" id="Layer_1" xmlns="http://www.w3.org/2000/svg" xmlns:xlink="http://www.w3.org/1999/xlink" x="0px" y="0px"
	 viewBox="0 0 20 20" style="enable-background:new 0 0 20 20;" xml:space="preserve">
<style type="text/css">
	.st0{fill:#FFFFFF;}
	.st1{fill:#FFC11C;}
</style>
<g transform="translate(-1264 -13)">
	<circle class="st0" cx="1274" cy="23" r="10"/>
	<path class="st1" d="M1273.9,13.9c-5,0-9.1,4.1-9.1,9.1c0,5,4.1,9.1,9.1,9.1c5,0,9.1-4.1,9.1-9.1
		C1283.1,17.9,1279,13.9,1273.9,13.9C1273.9,13.9,1273.9,13.9,1273.9,13.9z M1273.9,17.4c1.8,0,3.2,1.5,3.2,3.2
		c0,1.8-1.5,3.2-3.2,3.2c-1.8,0-3.2-1.5-3.2-3.2C1270.7,18.8,1272.2,17.4,1273.9,17.4L1273.9,17.4z M1273.9,30c-2.1,0-4-0.9-5.4-2.5
		c0.7-1.3,2.1-2.2,3.6-2.2c0.1,0,0.2,0,0.3,0c0.5,0.2,1,0.2,1.5,0.3c0.5,0,1-0.1,1.5-0.3c0.1,0,0.2,0,0.3,0c1.5,0,2.9,0.8,3.6,2.2
		C1278,29.1,1276,30,1273.9,30L1273.9,30z"/>
</g>
</svg>
